<?xml version="1.0" encoding="UTF-8" standalone="no"?>
<!DOCTYPE svg PUBLIC "-//W3C//DTD SVG 1.1//EN"
 "http://www.w3.org/Graphics/SVG/1.1/DTD/svg11.dtd">
<!-- Generated by graphviz version 2.49.0 (0)
 -->
<!-- Pages: 1 -->
<svg width="1159pt" height="476pt"
 viewBox="0.00 0.00 1159.48 476.00" xmlns="http://www.w3.org/2000/svg" xmlns:xlink="http://www.w3.org/1999/xlink">
<g id="graph0" class="graph" transform="scale(1 1) rotate(0) translate(4 472)">
<polygon fill="white" stroke="transparent" points="-4,4 -4,-472 1155.48,-472 1155.48,4 -4,4"/>
<!-- 0 -->
<g id="node1" class="node">
<title>0</title>
<polygon fill="none" stroke="black" points="800.84,-468 746.84,-468 746.84,-432 800.84,-432 800.84,-468"/>
<text text-anchor="middle" x="773.84" y="-446.3" font-family="Times,serif" font-size="14.00">big&#45;o</text>
</g>
<!-- 1 -->
<g id="node2" class="node">
<title>1</title>
<ellipse fill="none" stroke="black" cx="341.84" cy="-378" rx="48.19" ry="18"/>
<text text-anchor="middle" x="341.84" y="-374.3" font-family="Times,serif" font-size="14.00">crossbeam</text>
</g>
<!-- 0&#45;&gt;1 -->
<g id="edge1" class="edge">
<title>0&#45;&gt;1</title>
<path fill="none" stroke="black" d="M746.81,-444.62C676.75,-433.27 488.26,-402.73 395.24,-387.65"/>
<polygon fill="black" stroke="black" points="395.62,-384.17 385.19,-386.03 394.5,-391.08 395.62,-384.17"/>
</g>
<!-- 2 -->
<g id="node3" class="node">
<title>2</title>
<ellipse fill="none" stroke="black" cx="773.84" cy="-306" rx="51.19" ry="18"/>
<text text-anchor="middle" x="773.84" y="-302.3" font-family="Times,serif" font-size="14.00">parking_lot</text>
</g>
<!-- 0&#45;&gt;2 -->
<g id="edge2" class="edge">
<title>0&#45;&gt;2</title>
<path fill="none" stroke="black" d="M773.84,-431.87C773.84,-407.67 773.84,-363.21 773.84,-334.39"/>
<polygon fill="black" stroke="black" points="777.34,-334.19 773.84,-324.19 770.34,-334.19 777.34,-334.19"/>
</g>
<!-- 3 -->
<g id="node4" class="node">
<title>3</title>
<ellipse fill="none" stroke="black" cx="911.84" cy="-378" rx="46.29" ry="18"/>
<text text-anchor="middle" x="911.84" y="-374.3" font-family="Times,serif" font-size="14.00">serial_test</text>
</g>
<!-- 0&#45;&gt;3 -->
<g id="edge3" class="edge">
<title>0&#45;&gt;3</title>
<path fill="none" stroke="black" d="M801.1,-435.17C822.36,-424.38 852.1,-409.3 875.4,-397.48"/>
<polygon fill="black" stroke="black" points="877.29,-400.45 884.63,-392.8 874.13,-394.2 877.29,-400.45"/>
</g>
<!-- 4 -->
<g id="node5" class="node">
<title>4</title>
<ellipse fill="none" stroke="black" cx="263.84" cy="-90" rx="30.59" ry="18"/>
<text text-anchor="middle" x="263.84" y="-86.3" font-family="Times,serif" font-size="14.00">cfg&#45;if</text>
</g>
<!-- 1&#45;&gt;4 -->
<g id="edge4" class="edge">
<title>1&#45;&gt;4</title>
<path fill="none" stroke="black" d="M293.87,-376.64C215.86,-373.05 64.63,-352.75 8.84,-252 -41.81,-160.54 141.68,-113.81 224.88,-97.67"/>
<polygon fill="black" stroke="black" points="225.56,-101.1 234.74,-95.81 224.26,-94.22 225.56,-101.1"/>
</g>
<!-- 5 -->
<g id="node6" class="node">
<title>5</title>
<ellipse fill="none" stroke="black" stroke-dasharray="5,2" cx="96.84" cy="-234" rx="78.79" ry="18"/>
<text text-anchor="middle" x="96.84" y="-230.3" font-family="Times,serif" font-size="14.00">crossbeam&#45;channel</text>
</g>
<!-- 1&#45;&gt;5 -->
<g id="edge5" class="edge">
<title>1&#45;&gt;5</title>
<path fill="none" stroke="black" stroke-dasharray="1,5" d="M296.22,-372.05C257.28,-365.96 201.32,-352.67 160.84,-324 138.04,-307.86 120.35,-280.98 109.4,-260.97"/>
<polygon fill="black" stroke="black" points="112.46,-259.28 104.71,-252.05 106.27,-262.53 112.46,-259.28"/>
</g>
<!-- 6 -->
<g id="node7" class="node">
<title>6</title>
<ellipse fill="none" stroke="black" stroke-dasharray="5,2" cx="241.84" cy="-306" rx="72.29" ry="18"/>
<text text-anchor="middle" x="241.84" y="-302.3" font-family="Times,serif" font-size="14.00">crossbeam&#45;deque</text>
</g>
<!-- 1&#45;&gt;6 -->
<g id="edge6" class="edge">
<title>1&#45;&gt;6</title>
<path fill="none" stroke="black" stroke-dasharray="1,5" d="M320.14,-361.81C306.5,-352.26 288.67,-339.79 273.48,-329.15"/>
<polygon fill="black" stroke="black" points="275.08,-326 264.88,-323.13 271.07,-331.74 275.08,-326"/>
</g>
<!-- 7 -->
<g id="node8" class="node">
<title>7</title>
<ellipse fill="none" stroke="black" stroke-dasharray="5,2" cx="341.84" cy="-234" rx="72.29" ry="18"/>
<text text-anchor="middle" x="341.84" y="-230.3" font-family="Times,serif" font-size="14.00">crossbeam&#45;epoch</text>
</g>
<!-- 1&#45;&gt;7 -->
<g id="edge7" class="edge">
<title>1&#45;&gt;7</title>
<path fill="none" stroke="black" stroke-dasharray="1,5" d="M341.84,-359.87C341.84,-335.67 341.84,-291.21 341.84,-262.39"/>
<polygon fill="black" stroke="black" points="345.34,-262.19 341.84,-252.19 338.34,-262.19 345.34,-262.19"/>
</g>
<!-- 8 -->
<g id="node9" class="node">
<title>8</title>
<ellipse fill="none" stroke="black" stroke-dasharray="5,2" cx="503.84" cy="-234" rx="72.29" ry="18"/>
<text text-anchor="middle" x="503.84" y="-230.3" font-family="Times,serif" font-size="14.00">crossbeam&#45;queue</text>
</g>
<!-- 1&#45;&gt;8 -->
<g id="edge8" class="edge">
<title>1&#45;&gt;8</title>
<path fill="none" stroke="black" stroke-dasharray="1,5" d="M359.79,-361.26C388.27,-336.3 443.96,-287.48 477.13,-258.41"/>
<polygon fill="black" stroke="black" points="479.84,-260.69 485.05,-251.47 475.22,-255.43 479.84,-260.69"/>
</g>
<!-- 9 -->
<g id="node10" class="node">
<title>9</title>
<ellipse fill="none" stroke="black" cx="311.84" cy="-162" rx="66.09" ry="18"/>
<text text-anchor="middle" x="311.84" y="-158.3" font-family="Times,serif" font-size="14.00">crossbeam&#45;utils</text>
</g>
<!-- 1&#45;&gt;9 -->
<g id="edge9" class="edge">
<title>1&#45;&gt;9</title>
<path fill="none" stroke="black" d="M382.14,-368.17C466.53,-347.89 648.9,-293.7 584.84,-216 578.2,-207.96 456.22,-186.64 377.57,-173.62"/>
<polygon fill="black" stroke="black" points="377.69,-170.09 367.26,-171.92 376.55,-177 377.69,-170.09"/>
</g>
<!-- 10 -->
<g id="node11" class="node">
<title>10</title>
<ellipse fill="none" stroke="black" cx="741.84" cy="-162" rx="34.39" ry="18"/>
<text text-anchor="middle" x="741.84" y="-158.3" font-family="Times,serif" font-size="14.00">instant</text>
</g>
<!-- 2&#45;&gt;10 -->
<g id="edge10" class="edge">
<title>2&#45;&gt;10</title>
<path fill="none" stroke="black" d="M769.49,-287.85C766.9,-277.48 763.59,-264 760.84,-252 756.1,-231.34 751.11,-207.89 747.43,-190.25"/>
<polygon fill="black" stroke="black" points="750.78,-189.18 745.33,-180.1 743.93,-190.6 750.78,-189.18"/>
</g>
<!-- 11 -->
<g id="node12" class="node">
<title>11</title>
<ellipse fill="none" stroke="black" cx="672.84" cy="-234" rx="40.89" ry="18"/>
<text text-anchor="middle" x="672.84" y="-230.3" font-family="Times,serif" font-size="14.00">lock_api</text>
</g>
<!-- 2&#45;&gt;11 -->
<g id="edge11" class="edge">
<title>2&#45;&gt;11</title>
<path fill="none" stroke="black" d="M751.42,-289.46C736.91,-279.41 717.85,-266.2 702.14,-255.31"/>
<polygon fill="black" stroke="black" points="704.02,-252.36 693.81,-249.54 700.03,-258.11 704.02,-252.36"/>
</g>
<!-- 12 -->
<g id="node13" class="node">
<title>12</title>
<ellipse fill="none" stroke="black" cx="840.84" cy="-234" rx="70.69" ry="18"/>
<text text-anchor="middle" x="840.84" y="-230.3" font-family="Times,serif" font-size="14.00">parking_lot_core</text>
</g>
<!-- 2&#45;&gt;12 -->
<g id="edge12" class="edge">
<title>2&#45;&gt;12</title>
<path fill="none" stroke="black" d="M789.38,-288.76C797.79,-279.97 808.36,-268.93 817.73,-259.14"/>
<polygon fill="black" stroke="black" points="820.53,-261.28 824.92,-251.63 815.47,-256.44 820.53,-261.28"/>
</g>
<!-- 3&#45;&gt;2 -->
<g id="edge14" class="edge">
<title>3&#45;&gt;2</title>
<path fill="none" stroke="black" d="M884.9,-363.34C863.85,-352.66 834.35,-337.7 811.05,-325.87"/>
<polygon fill="black" stroke="black" points="812.63,-322.75 802.13,-321.35 809.46,-329 812.63,-322.75"/>
</g>
<!-- 13 -->
<g id="node14" class="node">
<title>13</title>
<ellipse fill="none" stroke="black" cx="405.84" cy="-90" rx="48.19" ry="18"/>
<text text-anchor="middle" x="405.84" y="-86.3" font-family="Times,serif" font-size="14.00">lazy_static</text>
</g>
<!-- 3&#45;&gt;13 -->
<g id="edge13" class="edge">
<title>3&#45;&gt;13</title>
<path fill="none" stroke="black" d="M919.94,-359.97C938.88,-317.42 980.37,-205.49 924.84,-144 894.4,-110.29 593.08,-96.87 464.02,-92.64"/>
<polygon fill="black" stroke="black" points="464.03,-89.14 453.92,-92.31 463.8,-96.13 464.03,-89.14"/>
</g>
<!-- 14 -->
<g id="node15" class="node">
<title>14</title>
<ellipse fill="none" stroke="#00cd00" cx="1044.84" cy="-306" rx="72.59" ry="18"/>
<text text-anchor="middle" x="1044.84" y="-302.3" font-family="Times,serif" font-size="14.00">serial_test_derive</text>
</g>
<!-- 3&#45;&gt;14 -->
<g id="edge15" class="edge">
<title>3&#45;&gt;14</title>
<path fill="none" stroke="#00cd00" d="M938.11,-363.17C957.59,-352.92 984.43,-338.79 1006.33,-327.27"/>
<polygon fill="#00cd00" stroke="#00cd00" points="1008.15,-330.26 1015.37,-322.51 1004.89,-324.07 1008.15,-330.26"/>
</g>
<!-- 5&#45;&gt;4 -->
<g id="edge16" class="edge">
<title>5&#45;&gt;4</title>
<path fill="none" stroke="black" stroke-dasharray="5,2" d="M107.03,-215.87C119.16,-196.56 140.94,-165.12 165.84,-144 184.98,-127.76 209.89,-114.37 229.81,-105.11"/>
<polygon fill="black" stroke="black" points="231.47,-108.2 239.14,-100.9 228.59,-101.82 231.47,-108.2"/>
</g>
<!-- 5&#45;&gt;9 -->
<g id="edge17" class="edge">
<title>5&#45;&gt;9</title>
<path fill="none" stroke="black" stroke-dasharray="1,5" d="M140.09,-218.92C175.21,-207.48 224.78,-191.34 261.64,-179.34"/>
<polygon fill="black" stroke="black" points="262.78,-182.65 271.2,-176.23 260.61,-176 262.78,-182.65"/>
</g>
<!-- 6&#45;&gt;4 -->
<g id="edge18" class="edge">
<title>6&#45;&gt;4</title>
<path fill="none" stroke="black" stroke-dasharray="5,2" d="M236.12,-287.63C227.15,-257.61 212.33,-194.42 227.84,-144 231.07,-133.47 237.19,-123.16 243.48,-114.48"/>
<polygon fill="black" stroke="black" points="246.38,-116.44 249.72,-106.38 240.84,-112.16 246.38,-116.44"/>
</g>
<!-- 6&#45;&gt;7 -->
<g id="edge19" class="edge">
<title>6&#45;&gt;7</title>
<path fill="none" stroke="black" stroke-dasharray="1,5" d="M265.03,-288.76C278.53,-279.31 295.74,-267.26 310.45,-256.97"/>
<polygon fill="black" stroke="black" points="312.58,-259.75 318.77,-251.15 308.57,-254.01 312.58,-259.75"/>
</g>
<!-- 6&#45;&gt;9 -->
<g id="edge20" class="edge">
<title>6&#45;&gt;9</title>
<path fill="none" stroke="black" stroke-dasharray="1,5" d="M242.7,-287.99C244.25,-269.34 248.61,-239.02 260.84,-216 266.63,-205.1 275.32,-194.87 283.89,-186.36"/>
<polygon fill="black" stroke="black" points="286.45,-188.76 291.32,-179.36 281.64,-183.67 286.45,-188.76"/>
</g>
<!-- 7&#45;&gt;4 -->
<g id="edge21" class="edge">
<title>7&#45;&gt;4</title>
<path fill="none" stroke="black" stroke-dasharray="5,2" d="M292.84,-220.78C271.78,-212.84 249.2,-200.09 236.84,-180 224.55,-160.03 234.89,-134.07 246.14,-115.35"/>
<polygon fill="black" stroke="black" points="249.18,-117.1 251.64,-106.8 243.29,-113.31 249.18,-117.1"/>
</g>
<!-- 7&#45;&gt;9 -->
<g id="edge22" class="edge">
<title>7&#45;&gt;9</title>
<path fill="none" stroke="black" stroke-dasharray="5,2" d="M334.57,-216.05C331.16,-208.09 327.01,-198.41 323.2,-189.51"/>
<polygon fill="black" stroke="black" points="326.4,-188.09 319.24,-180.28 319.96,-190.85 326.4,-188.09"/>
</g>
<!-- 7&#45;&gt;13 -->
<g id="edge23" class="edge">
<title>7&#45;&gt;13</title>
<path fill="none" stroke="black" stroke-dasharray="1,5" d="M359.67,-216.44C369.12,-206.7 380.12,-193.65 386.84,-180 396.4,-160.56 401.17,-136.42 403.53,-118.19"/>
<polygon fill="black" stroke="black" points="407.02,-118.54 404.67,-108.21 400.06,-117.75 407.02,-118.54"/>
</g>
<!-- 15 -->
<g id="node16" class="node">
<title>15</title>
<ellipse fill="none" stroke="black" stroke-dasharray="5,2" cx="482.84" cy="-162" rx="49.29" ry="18"/>
<text text-anchor="middle" x="482.84" y="-158.3" font-family="Times,serif" font-size="14.00">memoffset</text>
</g>
<!-- 7&#45;&gt;15 -->
<g id="edge24" class="edge">
<title>7&#45;&gt;15</title>
<path fill="none" stroke="black" stroke-dasharray="5,2" d="M372.78,-217.64C394.3,-206.96 423.08,-192.66 445.82,-181.38"/>
<polygon fill="black" stroke="black" points="447.43,-184.48 454.84,-176.9 444.32,-178.21 447.43,-184.48"/>
</g>
<!-- 16 -->
<g id="node17" class="node">
<title>16</title>
<ellipse fill="none" stroke="black" cx="600.84" cy="-162" rx="50.89" ry="18"/>
<text text-anchor="middle" x="600.84" y="-158.3" font-family="Times,serif" font-size="14.00">scopeguard</text>
</g>
<!-- 7&#45;&gt;16 -->
<g id="edge25" class="edge">
<title>7&#45;&gt;16</title>
<path fill="none" stroke="black" stroke-dasharray="5,2" d="M389.74,-220.47C430.09,-209.86 489.3,-194.16 540.84,-180 544.66,-178.95 548.62,-177.85 552.6,-176.74"/>
<polygon fill="black" stroke="black" points="553.77,-180.05 562.45,-173.97 551.88,-173.31 553.77,-180.05"/>
</g>
<!-- 8&#45;&gt;4 -->
<g id="edge26" class="edge">
<title>8&#45;&gt;4</title>
<path fill="none" stroke="black" stroke-dasharray="5,2" d="M559.67,-222.49C617.77,-209.19 695.75,-183.18 660.84,-144 614.4,-91.9 417.78,-118.85 348.84,-108 333.52,-105.59 316.77,-102.37 302.22,-99.38"/>
<polygon fill="black" stroke="black" points="302.57,-95.87 292.06,-97.25 301.14,-102.72 302.57,-95.87"/>
</g>
<!-- 8&#45;&gt;9 -->
<g id="edge27" class="edge">
<title>8&#45;&gt;9</title>
<path fill="none" stroke="black" stroke-dasharray="5,2" d="M464.52,-218.67C434.09,-207.57 391.84,-192.17 359.49,-180.37"/>
<polygon fill="black" stroke="black" points="360.39,-176.98 349.79,-176.84 357.99,-183.55 360.39,-176.98"/>
</g>
<!-- 9&#45;&gt;4 -->
<g id="edge28" class="edge">
<title>9&#45;&gt;4</title>
<path fill="none" stroke="black" d="M300.22,-144.05C294.27,-135.38 286.92,-124.67 280.39,-115.15"/>
<polygon fill="black" stroke="black" points="283.23,-113.1 274.69,-106.83 277.46,-117.06 283.23,-113.1"/>
</g>
<!-- 9&#45;&gt;13 -->
<g id="edge29" class="edge">
<title>9&#45;&gt;13</title>
<path fill="none" stroke="black" stroke-dasharray="1,5" d="M333.64,-144.76C346.48,-135.2 362.89,-122.98 376.82,-112.61"/>
<polygon fill="black" stroke="black" points="379.19,-115.21 385.12,-106.43 375.01,-109.59 379.19,-115.21"/>
</g>
<!-- 10&#45;&gt;4 -->
<g id="edge30" class="edge">
<title>10&#45;&gt;4</title>
<path fill="none" stroke="black" d="M715.26,-150.33C708.37,-147.92 700.91,-145.6 693.84,-144 543.46,-110.03 501.25,-131.14 348.84,-108 333.51,-105.67 316.76,-102.47 302.21,-99.47"/>
<polygon fill="black" stroke="black" points="302.56,-95.96 292.05,-97.33 301.12,-102.81 302.56,-95.96"/>
</g>
<!-- 11&#45;&gt;16 -->
<g id="edge31" class="edge">
<title>11&#45;&gt;16</title>
<path fill="none" stroke="black" d="M656.5,-217.12C647.15,-208.03 635.25,-196.46 624.85,-186.35"/>
<polygon fill="black" stroke="black" points="627.22,-183.77 617.61,-179.31 622.34,-188.79 627.22,-183.77"/>
</g>
<!-- 12&#45;&gt;4 -->
<g id="edge32" class="edge">
<title>12&#45;&gt;4</title>
<path fill="none" stroke="black" d="M835.37,-215.81C827.73,-194.87 811.67,-160.3 784.84,-144 701.74,-93.54 445.1,-121.56 348.84,-108 333.49,-105.84 316.73,-102.66 302.18,-99.64"/>
<polygon fill="black" stroke="black" points="302.54,-96.14 292.03,-97.49 301.08,-102.99 302.54,-96.14"/>
</g>
<!-- 12&#45;&gt;10 -->
<g id="edge33" class="edge">
<title>12&#45;&gt;10</title>
<path fill="none" stroke="black" d="M817.87,-216.76C803.65,-206.7 785.26,-193.71 770.14,-183.01"/>
<polygon fill="black" stroke="black" points="771.85,-179.93 761.66,-177.02 767.81,-185.65 771.85,-179.93"/>
</g>
<!-- 17 -->
<g id="node18" class="node">
<title>17</title>
<ellipse fill="none" stroke="black" cx="873.84" cy="-162" rx="42.49" ry="18"/>
<text text-anchor="middle" x="873.84" y="-158.3" font-family="Times,serif" font-size="14.00">smallvec</text>
</g>
<!-- 12&#45;&gt;17 -->
<g id="edge34" class="edge">
<title>12&#45;&gt;17</title>
<path fill="none" stroke="black" d="M848.82,-216.05C852.63,-207.97 857.28,-198.12 861.53,-189.11"/>
<polygon fill="black" stroke="black" points="864.82,-190.33 865.92,-179.79 858.49,-187.34 864.82,-190.33"/>
</g>
<!-- 18 -->
<g id="node19" class="node">
<title>18</title>
<ellipse fill="none" stroke="#00cd00" cx="1050.84" cy="-90" rx="55.79" ry="18"/>
<text text-anchor="middle" x="1050.84" y="-86.3" font-family="Times,serif" font-size="14.00">proc&#45;macro2</text>
</g>
<!-- 14&#45;&gt;18 -->
<g id="edge35" class="edge">
<title>14&#45;&gt;18</title>
<path fill="none" stroke="#00cd00" d="M1034.14,-288.17C1016.67,-258.45 985.79,-194.99 1004.84,-144 1008.95,-132.99 1016.49,-122.75 1024.3,-114.27"/>
<polygon fill="#00cd00" stroke="#00cd00" points="1026.93,-116.58 1031.45,-107 1021.94,-111.67 1026.93,-116.58"/>
</g>
<!-- 19 -->
<g id="node20" class="node">
<title>19</title>
<ellipse fill="none" stroke="#00cd00" cx="1044.84" cy="-162" rx="30.59" ry="18"/>
<text text-anchor="middle" x="1044.84" y="-158.3" font-family="Times,serif" font-size="14.00">quote</text>
</g>
<!-- 14&#45;&gt;19 -->
<g id="edge36" class="edge">
<title>14&#45;&gt;19</title>
<path fill="none" stroke="#00cd00" d="M1044.84,-287.87C1044.84,-263.67 1044.84,-219.21 1044.84,-190.39"/>
<polygon fill="#00cd00" stroke="#00cd00" points="1048.34,-190.19 1044.84,-180.19 1041.34,-190.19 1048.34,-190.19"/>
</g>
<!-- 20 -->
<g id="node21" class="node">
<title>20</title>
<ellipse fill="none" stroke="#00cd00" cx="1101.84" cy="-234" rx="27" ry="18"/>
<text text-anchor="middle" x="1101.84" y="-230.3" font-family="Times,serif" font-size="14.00">syn</text>
</g>
<!-- 14&#45;&gt;20 -->
<g id="edge37" class="edge">
<title>14&#45;&gt;20</title>
<path fill="none" stroke="#00cd00" d="M1058.63,-288.05C1065.94,-279.08 1075.03,-267.92 1082.98,-258.15"/>
<polygon fill="#00cd00" stroke="#00cd00" points="1085.73,-260.32 1089.33,-250.36 1080.3,-255.9 1085.73,-260.32"/>
</g>
<!-- 21 -->
<g id="node22" class="node">
<title>21</title>
<ellipse fill="none" stroke="#00cd00" cx="1098.84" cy="-18" rx="52.79" ry="18"/>
<text text-anchor="middle" x="1098.84" y="-14.3" font-family="Times,serif" font-size="14.00">unicode&#45;xid</text>
</g>
<!-- 18&#45;&gt;21 -->
<g id="edge38" class="edge">
<title>18&#45;&gt;21</title>
<path fill="none" stroke="#00cd00" d="M1062.46,-72.05C1068.17,-63.71 1075.19,-53.49 1081.52,-44.25"/>
<polygon fill="#00cd00" stroke="#00cd00" points="1084.55,-46.02 1087.32,-35.79 1078.78,-42.06 1084.55,-46.02"/>
</g>
<!-- 19&#45;&gt;18 -->
<g id="edge39" class="edge">
<title>19&#45;&gt;18</title>
<path fill="none" stroke="#00cd00" d="M1046.32,-143.7C1046.98,-135.98 1047.77,-126.71 1048.51,-118.11"/>
<polygon fill="#00cd00" stroke="#00cd00" points="1052,-118.37 1049.37,-108.1 1045.03,-117.77 1052,-118.37"/>
</g>
<!-- 20&#45;&gt;18 -->
<g id="edge40" class="edge">
<title>20&#45;&gt;18</title>
<path fill="none" stroke="#00cd00" d="M1100.5,-215.73C1098.63,-197.39 1094.34,-167.82 1084.84,-144 1080.99,-134.35 1075.31,-124.57 1069.7,-116.08"/>
<polygon fill="#00cd00" stroke="#00cd00" points="1072.51,-113.99 1063.95,-107.75 1066.75,-117.97 1072.51,-113.99"/>
</g>
<!-- 20&#45;&gt;19 -->
<g id="edge41" class="edge">
<title>20&#45;&gt;19</title>
<path fill="none" stroke="#00cd00" stroke-dasharray="1,5" d="M1089.47,-217.81C1082.03,-208.67 1072.4,-196.85 1063.99,-186.52"/>
<polygon fill="#00cd00" stroke="#00cd00" points="1066.6,-184.19 1057.57,-178.64 1061.17,-188.61 1066.6,-184.19"/>
</g>
<!-- 20&#45;&gt;21 -->
<g id="edge42" class="edge">
<title>20&#45;&gt;21</title>
<path fill="none" stroke="#00cd00" d="M1106,-215.99C1112.62,-186.51 1123.99,-124.11 1115.84,-72 1114.46,-63.18 1111.86,-53.82 1109.1,-45.46"/>
<polygon fill="#00cd00" stroke="#00cd00" points="1112.34,-44.13 1105.73,-35.86 1105.74,-46.45 1112.34,-44.13"/>
</g>
</g>
</svg>
