<?xml version="1.0" encoding="UTF-8" standalone="no"?>
<!DOCTYPE svg PUBLIC "-//W3C//DTD SVG 1.1//EN"
 "http://www.w3.org/Graphics/SVG/1.1/DTD/svg11.dtd">
<!-- Generated by graphviz version 2.49.0 (0)
 -->
<!-- Pages: 1 -->
<svg width="1314pt" height="668pt"
 viewBox="0.00 0.00 1313.60 667.60" xmlns="http://www.w3.org/2000/svg" xmlns:xlink="http://www.w3.org/1999/xlink">
<g id="graph0" class="graph" transform="scale(1 1) rotate(0) translate(28.8 638.8)">
<polygon fill="white" stroke="transparent" points="-28.8,28.8 -28.8,-638.8 1284.8,-638.8 1284.8,28.8 -28.8,28.8"/>
<text text-anchor="middle" x="628" y="-577.2" font-family="Helvetica,sans-Serif" font-size="36.00">big_o</text>
<!-- big_o -->
<g id="node1" class="node">
<title>big_o</title>
<polygon fill="#5397c8" stroke="black" points="0,-265.5 0,-303.5 54,-303.5 54,-265.5 0,-265.5"/>
<text text-anchor="middle" x="27" y="-291.5" font-family="monospace" font-size="10.00">crate</text>
<polyline fill="none" stroke="black" points="0,-284.5 54,-284.5 "/>
<text text-anchor="middle" x="27" y="-272.5" font-family="monospace" font-size="10.00">big_o</text>
</g>
<!-- big_o⸬big_o -->
<g id="node2" class="node">
<title>big_o⸬big_o</title>
<polygon fill="#81c169" stroke="black" points="120,-385.5 120,-423.5 179,-423.5 179,-385.5 120,-385.5"/>
<text text-anchor="middle" x="149.5" y="-411.5" font-family="monospace" font-size="10.00">pub mod</text>
<polyline fill="none" stroke="black" points="120,-404.5 179,-404.5 "/>
<text text-anchor="middle" x="149.5" y="-392.5" font-family="monospace" font-size="10.00">big_o</text>
</g>
<!-- big_o&#45;&gt;big_o⸬big_o -->
<g id="edge1" class="edge">
<title>big_o&#45;&gt;big_o⸬big_o</title>
<path fill="none" stroke="#000000" d="M47.09,-303.51C67.25,-323.58 99.17,-355.37 121.81,-377.92"/>
<polygon fill="#000000" stroke="#000000" points="119.54,-380.6 129.1,-385.18 124.48,-375.64 119.54,-380.6"/>
</g>
<!-- big_o⸬low_level_analysis -->
<g id="node7" class="node">
<title>big_o⸬big_o_analysis</title>
<polygon fill="#81c169" stroke="black" points="317,-313.5 317,-351.5 418,-351.5 418,-313.5 317,-313.5"/>
<text text-anchor="middle" x="367.5" y="-339.5" font-family="monospace" font-size="10.00">pub mod</text>
<polyline fill="none" stroke="black" points="317,-332.5 418,-332.5 "/>
<text text-anchor="middle" x="367.5" y="-320.5" font-family="monospace" font-size="10.00">big_o_analysis</text>
</g>
<!-- big_o&#45;&gt;big_o⸬low_level_analysis -->
<g id="edge7" class="edge">
<title>big_o&#45;&gt;big_o⸬big_o_analysis</title>
<path fill="none" stroke="#000000" d="M54.13,-291.01C65.15,-293.59 78.15,-296.44 90,-298.5 164.24,-311.41 250.53,-321.2 306.7,-326.89"/>
<polygon fill="#000000" stroke="#000000" points="306.53,-330.39 316.83,-327.9 307.23,-323.42 306.53,-330.39"/>
</g>
<!-- big_o⸬conditionals -->
<g id="node15" class="node">
<title>big_o⸬conditionals</title>
<polygon fill="#81c169" stroke="black" points="577,-143.5 577,-181.5 666,-181.5 666,-143.5 577,-143.5"/>
<text text-anchor="middle" x="621.5" y="-169.5" font-family="monospace" font-size="10.00">pub mod</text>
<polyline fill="none" stroke="black" points="577,-162.5 666,-162.5 "/>
<text text-anchor="middle" x="621.5" y="-150.5" font-family="monospace" font-size="10.00">conditionals</text>
</g>
<!-- big_o&#45;&gt;big_o⸬conditionals -->
<g id="edge18" class="edge">
<title>big_o&#45;&gt;big_o⸬conditionals</title>
<path fill="none" stroke="#000000" d="M54.23,-282.7C89.58,-280.03 154.38,-274.24 209,-264.5 338.85,-241.34 488.55,-200.62 566.68,-178.28"/>
<polygon fill="#000000" stroke="#000000" points="568.12,-181.51 576.76,-175.38 566.19,-174.78 568.12,-181.51"/>
</g>
<!-- big_o⸬metrics_allocator -->
<g id="node16" class="node">
<title>big_o⸬metrics_allocator</title>
<polygon fill="#81c169" stroke="black" points="90,-217.5 90,-255.5 209,-255.5 209,-217.5 90,-217.5"/>
<text text-anchor="middle" x="149.5" y="-243.5" font-family="monospace" font-size="10.00">pub mod</text>
<polyline fill="none" stroke="black" points="90,-236.5 209,-236.5 "/>
<text text-anchor="middle" x="149.5" y="-224.5" font-family="monospace" font-size="10.00">metrics_allocator</text>
</g>
<!-- big_o&#45;&gt;big_o⸬metrics_allocator -->
<g id="edge17" class="edge">
<title>big_o&#45;&gt;big_o⸬metrics_allocator</title>
<path fill="none" stroke="#000000" d="M54.15,-274.08C65.06,-269.74 78.21,-264.5 91.17,-259.34"/>
<polygon fill="#000000" stroke="#000000" points="92.55,-262.55 100.55,-255.6 89.96,-256.05 92.55,-262.55"/>
</g>
<!-- big_o⸬ring_buffer -->
<g id="node21" class="node">
<title>big_o⸬ring_buffer</title>
<polygon fill="#81c169" stroke="black" points="108,-160.5 108,-198.5 191,-198.5 191,-160.5 108,-160.5"/>
<text text-anchor="middle" x="149.5" y="-186.5" font-family="monospace" font-size="10.00">pub mod</text>
<polyline fill="none" stroke="black" points="108,-179.5 191,-179.5 "/>
<text text-anchor="middle" x="149.5" y="-167.5" font-family="monospace" font-size="10.00">ring_buffer</text>
</g>
<!-- big_o&#45;&gt;big_o⸬ring_buffer -->
<g id="edge23" class="edge">
<title>big_o&#45;&gt;big_o⸬ring_buffer</title>
<path fill="none" stroke="#000000" d="M39.82,-265.38C51.05,-248.44 69.28,-223.91 90,-207.5 92.78,-205.3 95.75,-203.22 98.84,-201.26"/>
<polygon fill="#000000" stroke="#000000" points="100.88,-204.13 107.76,-196.07 97.35,-198.08 100.88,-204.13"/>
</g>
<!-- big_o⸬big_o⸬test_crud_algorithms -->
<g id="node3" class="node">
<title>big_o⸬big_o⸬test_crud_algorithms</title>
<polygon fill="#81c169" stroke="black" points="281,-523.5 281,-561.5 454,-561.5 454,-523.5 281,-523.5"/>
<text text-anchor="middle" x="367.5" y="-549.5" font-family="monospace" font-size="10.00">pub fn</text>
<polyline fill="none" stroke="black" points="281,-542.5 454,-542.5 "/>
<text text-anchor="middle" x="367.5" y="-530.5" font-family="monospace" font-size="10.00">big_o⸬test_crud_algorithms</text>
</g>
<!-- big_o⸬big_o&#45;&gt;big_o⸬big_o⸬test_crud_algorithms -->
<g id="edge2" class="edge">
<title>big_o⸬big_o&#45;&gt;big_o⸬big_o⸬test_crud_algorithms</title>
<path fill="none" stroke="#000000" d="M161.57,-423.72C176.98,-448.67 207.3,-491.71 245,-514.5 253.11,-519.4 262,-523.45 271.17,-526.79"/>
<polygon fill="#000000" stroke="#000000" points="270.21,-530.16 280.8,-530.01 272.43,-523.52 270.21,-530.16"/>
</g>
<!-- big_o⸬big_o⸬analyze_crud_algorithms -->
<g id="node4" class="node">
<title>big_o⸬big_o⸬analyze_crud_algorithms</title>
<polygon fill="#81c169" stroke="black" points="272,-466.5 272,-504.5 463,-504.5 463,-466.5 272,-466.5"/>
<text text-anchor="middle" x="367.5" y="-492.5" font-family="monospace" font-size="10.00">pub fn</text>
<polyline fill="none" stroke="black" points="272,-485.5 463,-485.5 "/>
<text text-anchor="middle" x="367.5" y="-473.5" font-family="monospace" font-size="10.00">big_o⸬analyze_crud_algorithms</text>
</g>
<!-- big_o⸬big_o&#45;&gt;big_o⸬big_o⸬analyze_crud_algorithms -->
<g id="edge3" class="edge">
<title>big_o⸬big_o&#45;&gt;big_o⸬big_o⸬analyze_crud_algorithms</title>
<path fill="none" stroke="#000000" d="M179.23,-423.46C197.44,-434.74 221.84,-448.55 245,-457.5 250.5,-459.62 256.2,-461.61 262,-463.47"/>
<polygon fill="#000000" stroke="#000000" points="261.25,-466.9 271.84,-466.48 263.3,-460.21 261.25,-466.9"/>
</g>
<!-- big_o⸬big_o⸬internal_analyze_crud_algorithms -->
<g id="node5" class="node">
<title>big_o⸬big_o⸬internal_analyze_crud_algorithms</title>
<polygon fill="#db5367" stroke="black" points="245,-409.5 245,-447.5 490,-447.5 490,-409.5 245,-409.5"/>
<text text-anchor="middle" x="367.5" y="-435.5" font-family="monospace" font-size="10.00">pub(self) fn</text>
<polyline fill="none" stroke="black" points="245,-428.5 490,-428.5 "/>
<text text-anchor="middle" x="367.5" y="-416.5" font-family="monospace" font-size="10.00">big_o⸬internal_analyze_crud_algorithms</text>
</g>
<!-- big_o⸬big_o&#45;&gt;big_o⸬big_o⸬internal_analyze_crud_algorithms -->
<g id="edge4" class="edge">
<title>big_o⸬big_o&#45;&gt;big_o⸬big_o⸬internal_analyze_crud_algorithms</title>
<path fill="none" stroke="#000000" d="M179.18,-407.69C194.24,-409.36 213.88,-411.54 234.77,-413.86"/>
<polygon fill="#000000" stroke="#000000" points="234.45,-417.35 244.78,-414.98 235.23,-410.39 234.45,-417.35"/>
</g>
<!-- big_o⸬low_level_analysis⸬run_pass -->
<g id="node6" class="node">
<title>big_o⸬big_o_analysis⸬run_pass</title>
<polygon fill="#f8c04c" stroke="black" points="544,-427.5 544,-465.5 699,-465.5 699,-427.5 544,-427.5"/>
<text text-anchor="middle" x="621.5" y="-453.5" font-family="monospace" font-size="10.00">pub(crate) fn</text>
<polyline fill="none" stroke="black" points="544,-446.5 699,-446.5 "/>
<text text-anchor="middle" x="621.5" y="-434.5" font-family="monospace" font-size="10.00">big_o_analysis⸬run_pass</text>
</g>
<!-- big_o⸬big_o&#45;&gt;big_o⸬low_level_analysis⸬run_pass -->
<g id="edge5" class="edge">
<title>big_o⸬big_o&#45;&gt;big_o⸬big_o_analysis⸬run_pass</title>
<path fill="none" stroke="#7f7f7f" d="M179.18,-399.57C238.28,-390.4 377.56,-373.96 490,-400.5 507.41,-404.61 509.36,-411.93 526,-418.5 531.02,-420.48 536.25,-422.4 541.54,-424.24"/>
<polygon fill="#7f7f7f" stroke="#7f7f7f" points="540.53,-427.59 551.12,-427.47 542.76,-420.96 540.53,-427.59"/>
</g>
<!-- big_o⸬big_o&#45;&gt;big_o⸬low_level_analysis -->
<g id="edge6" class="edge">
<title>big_o⸬big_o&#45;&gt;big_o⸬big_o_analysis</title>
<path fill="none" stroke="#7f7f7f" d="M179.14,-392.03C197.72,-384.18 222.56,-374.12 245,-366.5 264.96,-359.72 287.08,-353.23 306.92,-347.77"/>
<polygon fill="#7f7f7f" stroke="#7f7f7f" points="308.03,-351.1 316.76,-345.1 306.19,-344.34 308.03,-351.1"/>
</g>
<!-- big_o⸬low_level_analysis&#45;&gt;big_o⸬low_level_analysis⸬run_pass -->
<g id="edge15" class="edge">
<title>big_o⸬big_o_analysis&#45;&gt;big_o⸬big_o_analysis⸬run_pass</title>
<path fill="none" stroke="#000000" d="M418,-338.41C441.49,-343.11 468.95,-351.5 490,-366.5 512.89,-382.81 503.23,-402.02 526,-418.5 528.7,-420.46 531.54,-422.28 534.48,-423.97"/>
<polygon fill="#000000" stroke="#000000" points="533.08,-427.19 543.56,-428.69 536.3,-420.97 533.08,-427.19"/>
</g>
<!-- big_o⸬low_level_analysis⸬types -->
<g id="node8" class="node">
<title>big_o⸬big_o_analysis⸬types</title>
<polygon fill="#81c169" stroke="black" points="553,-370.5 553,-408.5 690,-408.5 690,-370.5 553,-370.5"/>
<text text-anchor="middle" x="621.5" y="-396.5" font-family="monospace" font-size="10.00">pub mod</text>
<polyline fill="none" stroke="black" points="553,-389.5 690,-389.5 "/>
<text text-anchor="middle" x="621.5" y="-377.5" font-family="monospace" font-size="10.00">big_o_analysis⸬types</text>
</g>
<!-- big_o⸬low_level_analysis&#45;&gt;big_o⸬low_level_analysis⸬types -->
<g id="edge8" class="edge">
<title>big_o⸬big_o_analysis&#45;&gt;big_o⸬big_o_analysis⸬types</title>
<path fill="none" stroke="#000000" d="M418.29,-343.76C453.8,-351.79 502.25,-362.75 542.83,-371.93"/>
<polygon fill="#000000" stroke="#000000" points="542.16,-375.37 552.69,-374.16 543.71,-368.54 542.16,-375.37"/>
</g>
<!-- big_o⸬low_level_analysis⸬time_analysis -->
<g id="node9" class="node">
<title>big_o⸬big_o_analysis⸬time_analysis</title>
<polygon fill="#81c169" stroke="black" points="529,-313.5 529,-351.5 714,-351.5 714,-313.5 529,-313.5"/>
<text text-anchor="middle" x="621.5" y="-339.5" font-family="monospace" font-size="10.00">pub mod</text>
<polyline fill="none" stroke="black" points="529,-332.5 714,-332.5 "/>
<text text-anchor="middle" x="621.5" y="-320.5" font-family="monospace" font-size="10.00">big_o_analysis⸬time_analysis</text>
</g>
<!-- big_o⸬low_level_analysis&#45;&gt;big_o⸬low_level_analysis⸬time_analysis -->
<g id="edge9" class="edge">
<title>big_o⸬big_o_analysis&#45;&gt;big_o⸬big_o_analysis⸬time_analysis</title>
<path fill="none" stroke="#000000" d="M418.29,-332.5C447.01,-332.5 484.19,-332.5 518.83,-332.5"/>
<polygon fill="#000000" stroke="#000000" points="519,-336 529,-332.5 519,-329 519,-336"/>
</g>
<!-- big_o⸬low_level_analysis⸬space_analysis -->
<g id="node12" class="node">
<title>big_o⸬big_o_analysis⸬space_analysis</title>
<polygon fill="#81c169" stroke="black" points="526,-256.5 526,-294.5 717,-294.5 717,-256.5 526,-256.5"/>
<text text-anchor="middle" x="621.5" y="-282.5" font-family="monospace" font-size="10.00">pub mod</text>
<polyline fill="none" stroke="black" points="526,-275.5 717,-275.5 "/>
<text text-anchor="middle" x="621.5" y="-263.5" font-family="monospace" font-size="10.00">big_o_analysis⸬space_analysis</text>
</g>
<!-- big_o⸬low_level_analysis&#45;&gt;big_o⸬low_level_analysis⸬space_analysis -->
<g id="edge12" class="edge">
<title>big_o⸬big_o_analysis&#45;&gt;big_o⸬big_o_analysis⸬space_analysis</title>
<path fill="none" stroke="#000000" d="M418.29,-321.24C449.03,-314.28 489.48,-305.14 526.11,-296.85"/>
<polygon fill="#000000" stroke="#000000" points="527.35,-300.16 536.33,-294.54 525.8,-293.33 527.35,-300.16"/>
</g>
<!-- big_o⸬low_level_analysis&#45;&gt;big_o⸬conditionals -->
<g id="edge16" class="edge">
<title>big_o⸬big_o_analysis&#45;&gt;big_o⸬conditionals</title>
<path fill="none" stroke="#7f7f7f" d="M418,-326.59C441.49,-321.89 468.95,-313.5 490,-298.5 512.89,-282.19 507.36,-267.54 526,-246.5 544.85,-225.22 568.81,-203.97 587.89,-188.17"/>
<polygon fill="#7f7f7f" stroke="#7f7f7f" points="590.21,-190.79 595.73,-181.75 585.78,-185.38 590.21,-190.79"/>
</g>
<!-- big_o⸬low_level_analysis⸬time_analysis⸬analyse_time_complexity_for_constant_set_algorithm -->
<g id="node10" class="node">
<title>big_o⸬big_o_analysis⸬time_analysis⸬analyse_time_complexity_for_constant_set_algorithm</title>
<polygon fill="#81c169" stroke="black" points="759,-399.5 759,-437.5 1250,-437.5 1250,-399.5 759,-399.5"/>
<text text-anchor="middle" x="1004.5" y="-425.5" font-family="monospace" font-size="10.00">pub fn</text>
<polyline fill="none" stroke="black" points="759,-418.5 1250,-418.5 "/>
<text text-anchor="middle" x="1004.5" y="-406.5" font-family="monospace" font-size="10.00">big_o_analysis⸬time_analysis⸬analyse_time_complexity_for_constant_set_algorithm</text>
</g>
<!-- big_o⸬low_level_analysis⸬time_analysis&#45;&gt;big_o⸬low_level_analysis⸬time_analysis⸬analyse_time_complexity_for_constant_set_algorithm -->
<g id="edge10" class="edge">
<title>big_o⸬big_o_analysis⸬time_analysis&#45;&gt;big_o⸬big_o_analysis⸬time_analysis⸬analyse_time_complexity_for_constant_set_algorithm</title>
<path fill="none" stroke="#000000" d="M694.87,-351.56C702.51,-354.49 710.03,-357.8 717,-361.5 735.15,-371.13 734.03,-382.6 753,-390.5 757.86,-392.53 762.82,-394.42 767.85,-396.2"/>
<polygon fill="#000000" stroke="#000000" points="767.03,-399.61 777.63,-399.47 769.25,-392.97 767.03,-399.61"/>
</g>
<!-- big_o⸬low_level_analysis⸬time_analysis⸬analyse_time_complexity_for_set_resizing_algorithm -->
<g id="node11" class="node">
<title>big_o⸬big_o_analysis⸬time_analysis⸬analyse_time_complexity_for_set_resizing_algorithm</title>
<polygon fill="#81c169" stroke="black" points="759,-342.5 759,-380.5 1250,-380.5 1250,-342.5 759,-342.5"/>
<text text-anchor="middle" x="1004.5" y="-368.5" font-family="monospace" font-size="10.00">pub fn</text>
<polyline fill="none" stroke="black" points="759,-361.5 1250,-361.5 "/>
<text text-anchor="middle" x="1004.5" y="-349.5" font-family="monospace" font-size="10.00">big_o_analysis⸬time_analysis⸬analyse_time_complexity_for_set_resizing_algorithm</text>
</g>
<!-- big_o⸬low_level_analysis⸬time_analysis&#45;&gt;big_o⸬low_level_analysis⸬time_analysis⸬analyse_time_complexity_for_set_resizing_algorithm -->
<g id="edge11" class="edge">
<title>big_o⸬big_o_analysis⸬time_analysis&#45;&gt;big_o⸬big_o_analysis⸬time_analysis⸬analyse_time_complexity_for_set_resizing_algorithm</title>
<path fill="none" stroke="#000000" d="M714.24,-339.48C725.17,-340.31 736.69,-341.19 748.59,-342.1"/>
<polygon fill="#000000" stroke="#000000" points="748.44,-345.6 758.67,-342.87 748.97,-338.62 748.44,-345.6"/>
</g>
<!-- big_o⸬low_level_analysis⸬space_analysis⸬analyse_space_complexity_for_constant_set_algorithm -->
<g id="node13" class="node">
<title>big_o⸬big_o_analysis⸬space_analysis⸬analyse_space_complexity_for_constant_set_algorithm</title>
<polygon fill="#81c169" stroke="black" points="753,-285.5 753,-323.5 1256,-323.5 1256,-285.5 753,-285.5"/>
<text text-anchor="middle" x="1004.5" y="-311.5" font-family="monospace" font-size="10.00">pub fn</text>
<polyline fill="none" stroke="black" points="753,-304.5 1256,-304.5 "/>
<text text-anchor="middle" x="1004.5" y="-292.5" font-family="monospace" font-size="10.00">big_o_analysis⸬space_analysis⸬analyse_space_complexity_for_constant_set_algorithm</text>
</g>
<!-- big_o⸬low_level_analysis⸬space_analysis&#45;&gt;big_o⸬low_level_analysis⸬space_analysis⸬analyse_space_complexity_for_constant_set_algorithm -->
<g id="edge13" class="edge">
<title>big_o⸬big_o_analysis⸬space_analysis&#45;&gt;big_o⸬big_o_analysis⸬space_analysis⸬analyse_space_complexity_for_constant_set_algorithm</title>
<path fill="none" stroke="#000000" d="M717.17,-282.71C725.58,-283.35 734.32,-284.01 743.3,-284.69"/>
<polygon fill="#000000" stroke="#000000" points="743.3,-288.21 753.54,-285.47 743.84,-281.23 743.3,-288.21"/>
</g>
<!-- big_o⸬low_level_analysis⸬space_analysis⸬analyse_space_complexity_for_set_resizing_algorithm -->
<g id="node14" class="node">
<title>big_o⸬big_o_analysis⸬space_analysis⸬analyse_space_complexity_for_set_resizing_algorithm</title>
<polygon fill="#81c169" stroke="black" points="753,-228.5 753,-266.5 1256,-266.5 1256,-228.5 753,-228.5"/>
<text text-anchor="middle" x="1004.5" y="-254.5" font-family="monospace" font-size="10.00">pub fn</text>
<polyline fill="none" stroke="black" points="753,-247.5 1256,-247.5 "/>
<text text-anchor="middle" x="1004.5" y="-235.5" font-family="monospace" font-size="10.00">big_o_analysis⸬space_analysis⸬analyse_space_complexity_for_set_resizing_algorithm</text>
</g>
<!-- big_o⸬low_level_analysis⸬space_analysis&#45;&gt;big_o⸬low_level_analysis⸬space_analysis⸬analyse_space_complexity_for_set_resizing_algorithm -->
<g id="edge14" class="edge">
<title>big_o⸬big_o_analysis⸬space_analysis&#45;&gt;big_o⸬big_o_analysis⸬space_analysis⸬analyse_space_complexity_for_set_resizing_algorithm</title>
<path fill="none" stroke="#000000" d="M717.17,-268.54C725.42,-267.94 733.99,-267.31 742.79,-266.66"/>
<polygon fill="#000000" stroke="#000000" points="743.11,-270.15 752.82,-265.92 742.59,-263.16 743.11,-270.15"/>
</g>
<!-- big_o⸬conditionals⸬stdout_write -->
<g id="node17" class="node">
<title>big_o⸬conditionals⸬stdout_write</title>
<polygon fill="#db5367" stroke="black" points="921,-171.5 921,-209.5 1088,-209.5 1088,-171.5 921,-171.5"/>
<text text-anchor="middle" x="1004.5" y="-197.5" font-family="monospace" font-size="10.00">pub(self) fn</text>
<polyline fill="none" stroke="black" points="921,-190.5 1088,-190.5 "/>
<text text-anchor="middle" x="1004.5" y="-178.5" font-family="monospace" font-size="10.00">conditionals⸬stdout_write</text>
</g>
<!-- big_o⸬conditionals&#45;&gt;big_o⸬conditionals⸬stdout_write -->
<g id="edge19" class="edge">
<title>big_o⸬conditionals&#45;&gt;big_o⸬conditionals⸬stdout_write</title>
<path fill="none" stroke="#000000" d="M666.21,-165.71C725.5,-170.07 832.95,-177.97 910.67,-183.68"/>
<polygon fill="#000000" stroke="#000000" points="910.72,-187.19 920.95,-184.43 911.24,-180.21 910.72,-187.19"/>
</g>
<!-- big_o⸬conditionals⸬stderr_write -->
<g id="node18" class="node">
<title>big_o⸬conditionals⸬stderr_write</title>
<polygon fill="#db5367" stroke="black" points="921,-114.5 921,-152.5 1088,-152.5 1088,-114.5 921,-114.5"/>
<text text-anchor="middle" x="1004.5" y="-140.5" font-family="monospace" font-size="10.00">pub(self) fn</text>
<polyline fill="none" stroke="black" points="921,-133.5 1088,-133.5 "/>
<text text-anchor="middle" x="1004.5" y="-121.5" font-family="monospace" font-size="10.00">conditionals⸬stderr_write</text>
</g>
<!-- big_o⸬conditionals&#45;&gt;big_o⸬conditionals⸬stderr_write -->
<g id="edge20" class="edge">
<title>big_o⸬conditionals&#45;&gt;big_o⸬conditionals⸬stderr_write</title>
<path fill="none" stroke="#000000" d="M666.21,-159.17C725.5,-154.66 832.95,-146.48 910.67,-140.57"/>
<polygon fill="#000000" stroke="#000000" points="911.25,-144.03 920.95,-139.78 910.72,-137.05 911.25,-144.03"/>
</g>
<!-- big_o⸬conditionals⸬null_write -->
<g id="node19" class="node">
<title>big_o⸬conditionals⸬null_write</title>
<polygon fill="#db5367" stroke="black" points="927,-57.5 927,-95.5 1082,-95.5 1082,-57.5 927,-57.5"/>
<text text-anchor="middle" x="1004.5" y="-83.5" font-family="monospace" font-size="10.00">pub(self) fn</text>
<polyline fill="none" stroke="black" points="927,-76.5 1082,-76.5 "/>
<text text-anchor="middle" x="1004.5" y="-64.5" font-family="monospace" font-size="10.00">conditionals⸬null_write</text>
</g>
<!-- big_o⸬conditionals&#45;&gt;big_o⸬conditionals⸬null_write -->
<g id="edge21" class="edge">
<title>big_o⸬conditionals&#45;&gt;big_o⸬conditionals⸬null_write</title>
<path fill="none" stroke="#000000" d="M657.42,-143.44C683.1,-130.31 719.26,-113.65 753,-104.5 806.23,-90.07 867.77,-83.06 916.53,-79.66"/>
<polygon fill="#000000" stroke="#000000" points="916.98,-83.14 926.73,-78.99 916.52,-76.16 916.98,-83.14"/>
</g>
<!-- big_o⸬conditionals⸬ALLOC -->
<g id="node20" class="node">
<title>big_o⸬conditionals⸬ALLOC</title>
<polygon fill="#81c169" stroke="black" points="942,-0.5 942,-38.5 1067,-38.5 1067,-0.5 942,-0.5"/>
<text text-anchor="middle" x="1004.5" y="-26.5" font-family="monospace" font-size="10.00">pub static</text>
<polyline fill="none" stroke="black" points="942,-19.5 1067,-19.5 "/>
<text text-anchor="middle" x="1004.5" y="-7.5" font-family="monospace" font-size="10.00">conditionals⸬ALLOC</text>
</g>
<!-- big_o⸬conditionals&#45;&gt;big_o⸬conditionals⸬ALLOC -->
<g id="edge22" class="edge">
<title>big_o⸬conditionals&#45;&gt;big_o⸬conditionals⸬ALLOC</title>
<path fill="none" stroke="#000000" d="M637.4,-143.49C659.46,-116.89 703.57,-69.38 753,-47.5 809.55,-22.46 880.01,-16.53 931.78,-16.25"/>
<polygon fill="#000000" stroke="#000000" points="931.87,-19.75 941.88,-16.26 931.88,-12.75 931.87,-19.75"/>
</g>
</g>
</svg>
