<?xml version="1.0" encoding="UTF-8" standalone="no"?>
<!DOCTYPE svg PUBLIC "-//W3C//DTD SVG 1.1//EN"
 "http://www.w3.org/Graphics/SVG/1.1/DTD/svg11.dtd">
<!-- Generated by graphviz version 2.49.0 (0)
 -->
<!-- Pages: 1 -->
<svg width="863pt" height="420pt"
 viewBox="0.00 0.00 862.60 420.10" xmlns="http://www.w3.org/2000/svg" xmlns:xlink="http://www.w3.org/1999/xlink">
<g id="graph0" class="graph" transform="scale(1 1) rotate(0) translate(28.8 391.3)">
<polygon fill="white" stroke="transparent" points="-28.8,28.8 -28.8,-391.3 833.8,-391.3 833.8,28.8 -28.8,28.8"/>
<text text-anchor="middle" x="402.5" y="-329.7" font-family="Helvetica,sans-Serif" font-size="36.00">big_o</text>
<!-- big_o -->
<g id="node1" class="node">
<title>big_o</title>
<polygon fill="#5397c8" stroke="black" points="0,-57 0,-95 54,-95 54,-57 0,-57"/>
<text text-anchor="middle" x="27" y="-83" font-family="monospace" font-size="10.00">crate</text>
<polyline fill="none" stroke="black" points="0,-76 54,-76 "/>
<text text-anchor="middle" x="27" y="-64" font-family="monospace" font-size="10.00">big_o</text>
</g>
<!-- big_o⸬big_o -->
<g id="node2" class="node">
<title>big_o⸬big_o</title>
<polygon fill="#81c169" stroke="black" points="90,-119 90,-157 149,-157 149,-119 90,-119"/>
<text text-anchor="middle" x="119.5" y="-145" font-family="monospace" font-size="10.00">pub mod</text>
<polyline fill="none" stroke="black" points="90,-138 149,-138 "/>
<text text-anchor="middle" x="119.5" y="-126" font-family="monospace" font-size="10.00">big_o</text>
</g>
<!-- big_o&#45;&gt;big_o⸬big_o -->
<g id="edge1" class="edge">
<title>big_o&#45;&gt;big_o⸬big_o</title>
<path fill="none" stroke="#000000" d="M54.18,-93.93C62.89,-99.9 72.76,-106.66 82.1,-113.06"/>
<polygon fill="#000000" stroke="#000000" points="80.26,-116.04 90.49,-118.81 84.22,-110.27 80.26,-116.04"/>
</g>
<!-- big_o⸬low_level_analysis -->
<g id="node4" class="node">
<title>big_o⸬big_o_analysis</title>
<polygon fill="#81c169" stroke="black" points="185,-181 185,-219 286,-219 286,-181 185,-181"/>
<text text-anchor="middle" x="235.5" y="-207" font-family="monospace" font-size="10.00">pub mod</text>
<polyline fill="none" stroke="black" points="185,-200 286,-200 "/>
<text text-anchor="middle" x="235.5" y="-188" font-family="monospace" font-size="10.00">big_o_analysis</text>
</g>
<!-- big_o&#45;&gt;big_o⸬low_level_analysis -->
<g id="edge5" class="edge">
<title>big_o&#45;&gt;big_o⸬big_o_analysis</title>
<path fill="none" stroke="#000000" d="M35.88,-95.2C45.5,-116.16 63.78,-149.12 90,-167 114.8,-183.92 147.01,-192.27 174.72,-196.35"/>
<polygon fill="#000000" stroke="#000000" points="174.34,-199.83 184.71,-197.67 175.25,-192.89 174.34,-199.83"/>
</g>
<!-- big_o⸬conditionals -->
<g id="node5" class="node">
<title>big_o⸬conditionals</title>
<polygon fill="#81c169" stroke="black" points="373,-76 373,-114 462,-114 462,-76 373,-76"/>
<text text-anchor="middle" x="417.5" y="-102" font-family="monospace" font-size="10.00">pub mod</text>
<polyline fill="none" stroke="black" points="373,-95 462,-95 "/>
<text text-anchor="middle" x="417.5" y="-83" font-family="monospace" font-size="10.00">conditionals</text>
</g>
<!-- big_o&#45;&gt;big_o⸬conditionals -->
<g id="edge14" class="edge">
<title>big_o&#45;&gt;big_o⸬conditionals</title>
<path fill="none" stroke="#000000" d="M54.09,-77.28C116.97,-80.35 277.91,-88.22 362.58,-92.36"/>
<polygon fill="#000000" stroke="#000000" points="362.6,-95.87 372.76,-92.86 362.94,-88.88 362.6,-95.87"/>
</g>
<!-- big_o⸬metrics_allocator -->
<g id="node8" class="node">
<title>big_o⸬metrics_allocator</title>
<polygon fill="#81c169" stroke="black" points="558,-29 558,-67 677,-67 677,-29 558,-29"/>
<text text-anchor="middle" x="617.5" y="-55" font-family="monospace" font-size="10.00">pub mod</text>
<polyline fill="none" stroke="black" points="558,-48 677,-48 "/>
<text text-anchor="middle" x="617.5" y="-36" font-family="monospace" font-size="10.00">metrics_allocator</text>
</g>
<!-- big_o&#45;&gt;big_o⸬metrics_allocator -->
<g id="edge12" class="edge">
<title>big_o&#45;&gt;big_o⸬metrics_allocator</title>
<path fill="none" stroke="#000000" d="M54.05,-74.76C140.14,-70.66 417.45,-57.47 547.71,-51.27"/>
<polygon fill="#000000" stroke="#000000" points="548.14,-54.76 557.96,-50.79 547.8,-47.76 548.14,-54.76"/>
</g>
<!-- big_o⸬ring_buffer -->
<g id="node9" class="node">
<title>big_o⸬ring_buffer</title>
<polygon fill="#81c169" stroke="black" points="722,-5 722,-43 805,-43 805,-5 722,-5"/>
<text text-anchor="middle" x="763.5" y="-31" font-family="monospace" font-size="10.00">pub mod</text>
<polyline fill="none" stroke="black" points="722,-24 805,-24 "/>
<text text-anchor="middle" x="763.5" y="-12" font-family="monospace" font-size="10.00">ring_buffer</text>
</g>
<!-- big_o&#45;&gt;big_o⸬ring_buffer -->
<g id="edge16" class="edge">
<title>big_o&#45;&gt;big_o⸬ring_buffer</title>
<path fill="none" stroke="#000000" d="M54.25,-59.51C92.41,-37.16 166.12,0 234.5,0 234.5,0 234.5,0 418.5,0 522.78,0 644.41,-11.11 711.5,-18.21"/>
<polygon fill="#000000" stroke="#000000" points="711.47,-21.73 721.79,-19.32 712.22,-14.77 711.47,-21.73"/>
</g>
<!-- big_o⸬low_level_analysis⸬types -->
<g id="node3" class="node">
<title>big_o⸬big_o_analysis⸬types</title>
<polygon fill="#81c169" stroke="black" points="549,-195 549,-233 686,-233 686,-195 549,-195"/>
<text text-anchor="middle" x="617.5" y="-221" font-family="monospace" font-size="10.00">pub mod</text>
<polyline fill="none" stroke="black" points="549,-214 686,-214 "/>
<text text-anchor="middle" x="617.5" y="-202" font-family="monospace" font-size="10.00">big_o_analysis⸬types</text>
</g>
<!-- big_o⸬big_o&#45;&gt;big_o⸬low_level_analysis⸬types -->
<g id="edge2" class="edge">
<title>big_o⸬big_o&#45;&gt;big_o⸬big_o_analysis⸬types</title>
<path fill="none" stroke="#7f7f7f" d="M149.31,-142.41C224.17,-153.89 426.79,-184.93 539.04,-202.13"/>
<polygon fill="#7f7f7f" stroke="#7f7f7f" points="538.53,-205.59 548.95,-203.65 539.59,-198.67 538.53,-205.59"/>
</g>
<!-- big_o⸬big_o&#45;&gt;big_o⸬low_level_analysis -->
<g id="edge3" class="edge">
<title>big_o⸬big_o&#45;&gt;big_o⸬big_o_analysis</title>
<path fill="none" stroke="#7f7f7f" d="M149.27,-153.65C161.71,-160.41 176.56,-168.49 190.35,-175.99"/>
<polygon fill="#7f7f7f" stroke="#7f7f7f" points="188.76,-179.11 199.22,-180.81 192.11,-172.96 188.76,-179.11"/>
</g>
<!-- big_o⸬big_o&#45;&gt;big_o⸬conditionals -->
<g id="edge4" class="edge">
<title>big_o⸬big_o&#45;&gt;big_o⸬conditionals</title>
<path fill="none" stroke="#7f7f7f" d="M149.15,-133.84C198.42,-126.68 299.95,-111.93 362.73,-102.81"/>
<polygon fill="#7f7f7f" stroke="#7f7f7f" points="363.45,-106.24 372.84,-101.34 362.44,-99.32 363.45,-106.24"/>
</g>
<!-- big_o⸬low_level_analysis&#45;&gt;big_o⸬low_level_analysis⸬types -->
<g id="edge6" class="edge">
<title>big_o⸬big_o_analysis&#45;&gt;big_o⸬big_o_analysis⸬types</title>
<path fill="none" stroke="#000000" d="M286.2,-201.76C341.55,-203.73 433.68,-207.03 513,-210 521.33,-210.31 530.04,-210.64 538.71,-210.97"/>
<polygon fill="#000000" stroke="#000000" points="538.73,-214.48 548.86,-211.36 539,-207.48 538.73,-214.48"/>
</g>
<!-- big_o⸬low_level_analysis&#45;&gt;big_o⸬conditionals -->
<g id="edge11" class="edge">
<title>big_o⸬big_o_analysis&#45;&gt;big_o⸬conditionals</title>
<path fill="none" stroke="#7f7f7f" d="M269.1,-180.99C298.82,-163.65 342.89,-137.94 375.09,-119.15"/>
<polygon fill="#7f7f7f" stroke="#7f7f7f" points="376.97,-122.11 383.84,-114.05 373.44,-116.07 376.97,-122.11"/>
</g>
<!-- big_o⸬low_level_analysis⸬time_analysis -->
<g id="node6" class="node">
<title>big_o⸬big_o_analysis⸬time_analysis</title>
<polygon fill="#81c169" stroke="black" points="325,-276 325,-314 510,-314 510,-276 325,-276"/>
<text text-anchor="middle" x="417.5" y="-302" font-family="monospace" font-size="10.00">pub mod</text>
<polyline fill="none" stroke="black" points="325,-295 510,-295 "/>
<text text-anchor="middle" x="417.5" y="-283" font-family="monospace" font-size="10.00">big_o_analysis⸬time_analysis</text>
</g>
<!-- big_o⸬low_level_analysis&#45;&gt;big_o⸬low_level_analysis⸬time_analysis -->
<g id="edge7" class="edge">
<title>big_o⸬big_o_analysis&#45;&gt;big_o⸬big_o_analysis⸬time_analysis</title>
<path fill="none" stroke="#000000" d="M256.4,-219.18C272.83,-234.08 297.36,-254.29 322,-267 325.49,-268.8 329.12,-270.51 332.83,-272.12"/>
<polygon fill="#000000" stroke="#000000" points="331.6,-275.4 342.18,-275.92 334.24,-268.91 331.6,-275.4"/>
</g>
<!-- big_o⸬low_level_analysis⸬space_analysis -->
<g id="node7" class="node">
<title>big_o⸬big_o_analysis⸬space_analysis</title>
<polygon fill="#81c169" stroke="black" points="322,-219 322,-257 513,-257 513,-219 322,-219"/>
<text text-anchor="middle" x="417.5" y="-245" font-family="monospace" font-size="10.00">pub mod</text>
<polyline fill="none" stroke="black" points="322,-238 513,-238 "/>
<text text-anchor="middle" x="417.5" y="-226" font-family="monospace" font-size="10.00">big_o_analysis⸬space_analysis</text>
</g>
<!-- big_o⸬low_level_analysis&#45;&gt;big_o⸬low_level_analysis⸬space_analysis -->
<g id="edge9" class="edge">
<title>big_o⸬big_o_analysis&#45;&gt;big_o⸬big_o_analysis⸬space_analysis</title>
<path fill="none" stroke="#000000" d="M286.16,-210.48C295.63,-212.48 305.84,-214.64 316.24,-216.83"/>
<polygon fill="#000000" stroke="#000000" points="315.74,-220.3 326.24,-218.95 317.18,-213.46 315.74,-220.3"/>
</g>
<!-- big_o⸬conditionals&#45;&gt;big_o⸬metrics_allocator -->
<g id="edge15" class="edge">
<title>big_o⸬conditionals&#45;&gt;big_o⸬metrics_allocator</title>
<path fill="none" stroke="#7f7f7f" d="M462.44,-84.57C487.51,-78.62 519.49,-71.03 547.81,-64.31"/>
<polygon fill="#7f7f7f" stroke="#7f7f7f" points="548.73,-67.68 557.65,-61.97 547.12,-60.87 548.73,-67.68"/>
</g>
<!-- big_o⸬low_level_analysis⸬time_analysis&#45;&gt;big_o⸬low_level_analysis⸬types -->
<g id="edge8" class="edge">
<title>big_o⸬big_o_analysis⸬time_analysis&#45;&gt;big_o⸬big_o_analysis⸬types</title>
<path fill="none" stroke="#7f7f7f" d="M488.16,-275.96C496.61,-273.18 505.06,-270.18 513,-267 533.68,-258.72 555.77,-247.73 574.2,-237.91"/>
<polygon fill="#7f7f7f" stroke="#7f7f7f" points="576.07,-240.88 583.21,-233.05 572.75,-234.72 576.07,-240.88"/>
</g>
<!-- big_o⸬low_level_analysis⸬space_analysis&#45;&gt;big_o⸬low_level_analysis⸬types -->
<g id="edge10" class="edge">
<title>big_o⸬big_o_analysis⸬space_analysis&#45;&gt;big_o⸬big_o_analysis⸬types</title>
<path fill="none" stroke="#7f7f7f" d="M513.15,-226.53C521.7,-225.49 530.3,-224.45 538.68,-223.43"/>
<polygon fill="#7f7f7f" stroke="#7f7f7f" points="539.28,-226.89 548.79,-222.21 538.44,-219.94 539.28,-226.89"/>
</g>
<!-- big_o⸬metrics_allocator&#45;&gt;big_o⸬ring_buffer -->
<g id="edge13" class="edge">
<title>big_o⸬metrics_allocator&#45;&gt;big_o⸬ring_buffer</title>
<path fill="none" stroke="#7f7f7f" d="M677.07,-38.24C688.52,-36.33 700.43,-34.34 711.6,-32.48"/>
<polygon fill="#7f7f7f" stroke="#7f7f7f" points="712.33,-35.91 721.62,-30.81 711.18,-29 712.33,-35.91"/>
</g>
</g>
</svg>
